<svg width="686" height="1545" viewBox="0 0 686 1545" fill="none" xmlns="http://www.w3.org/2000/svg">
<g clip-path="url(#clip0_1_3)">
<path fill-rule="evenodd" clip-rule="evenodd" d="M53.5879 995.023C56.0146 1015.34 62.7747 1051.65 82.228 1090.66C121.148 1169.5 190.335 1221.8 287.628 1246.72C292.481 1247.81 296.001 1251.32 297.628 1255.66C302.215 1255.66 307.081 1255.66 311.948 1255.66C311.948 1253.77 311.948 1252.13 311.948 1250.24C267.895 1101.22 180.881 1015.34 53.5879 995.023Z" fill="#FF9C99"/>
<path fill-rule="evenodd" clip-rule="evenodd" d="M673.815 252.41C671.655 242.663 669.228 233.183 665.708 223.69C657.335 200.663 645.441 179.263 630.041 160.29C608.681 133.477 580.841 112.077 549.761 97.7169C505.441 77.1169 456.255 70.3434 407.615 71.4234C353.295 72.2501 300.321 69.5301 247.895 86.8768C213.308 98.2501 181.148 117.223 155.468 143.223C136.828 162.197 121.428 184.677 110.615 209.064C104.668 222.344 99.8012 236.157 97.0946 250.25C96.8279 251.064 96.8279 251.877 96.5613 252.677C40.0679 510.61 203.041 733.584 364.908 767.45C378.161 770.157 391.948 770.157 405.188 767.45C567.334 733.304 730.295 510.61 673.815 252.41Z" fill="#FF9C99"/>
<path fill-rule="evenodd" clip-rule="evenodd" d="M566.521 49.7435C560.308 43.7968 550.855 43.5301 544.095 49.2234C537.602 54.9034 536.255 64.3834 541.388 71.4234C572.748 115.863 578.961 181.424 557.601 242.664C539.228 295.49 498.695 330.17 455.721 366.73C446.268 374.877 436.268 383.277 426.801 391.943C367.615 445.05 332.215 518.183 321.401 609.49C320.868 614.637 320.321 620.063 319.788 625.21C317.895 645.797 317.628 666.664 318.162 687.797C318.162 689.69 318.428 691.863 318.428 693.757V752.264C238.442 736.01 105.482 655.277 46.5616 437.73C27.1082 365.384 14.3883 258.103 65.7483 158.677C94.4016 103.13 148.708 61.6768 218.708 41.6234C297.082 19.1434 380.855 28.0902 443.028 65.1969C489.508 92.8369 510.308 148.65 495.175 203.903C470.308 294.41 350.321 351.57 259.508 342.37C212.495 337.757 157.362 308.223 142.775 261.09C131.962 226.13 141.948 191.717 170.601 164.357C214.388 122.637 288.175 107.464 346.268 128.597C390.868 144.85 396.535 159.477 397.348 163.557C398.962 172.223 388.148 182.784 381.401 187.93C343.028 219.37 279.522 222.877 242.495 195.517C236.002 190.637 226.815 191.997 221.948 198.503C217.082 204.997 218.441 214.223 224.921 219.09C272.761 254.303 351.135 250.797 399.788 210.69C420.041 193.903 428.975 176.557 425.988 158.677C421.935 135.637 399.241 116.677 356.268 100.97C288.428 76.3034 201.961 93.9168 150.335 142.957C113.575 177.917 100.601 224.237 114.655 269.477C133.855 331.53 201.695 365.663 256.548 371.357C359.242 381.637 493.828 318.53 523.282 211.503C541.935 143.223 515.722 74.4102 457.882 39.7302C388.975 -1.44315 296.268 -11.1897 210.601 13.1836C132.775 35.4103 71.9614 82.2636 39.5347 145.117C-16.1319 252.957 -2.89187 367.823 18.1881 445.303C49.5348 560.997 102.762 650.41 176.548 711.637C236.268 760.943 291.415 776.93 318.428 781.81V1257.84C318.162 1257.29 318.162 1256.46 317.895 1255.93C268.708 1089.04 164.388 992.317 16.5616 976.33L0.348288 974.437V990.69C0.348288 993.13 0.614851 1049.74 32.5082 1115.04C61.9615 1175.2 124.935 1254.04 257.628 1287.89C265.468 1289.8 273.295 1285.18 275.468 1277.33C277.361 1269.48 272.761 1261.62 264.921 1259.45C167.641 1234.53 98.4414 1181.96 59.5347 1103.4C40.0814 1064.38 33.3216 1028.08 30.8816 1007.76C158.175 1028.08 245.201 1113.96 289.508 1263.52C310.335 1333.94 316.815 1403.86 318.428 1449.09V1501.12V1530.42C318.428 1538.44 325.002 1544.97 333.015 1544.97H333.028C341.055 1544.97 347.615 1538.44 347.615 1530.42V1501.93V1501.82C347.655 1499.09 348.948 1477.84 347.615 1445.32V1374.61V782.077C374.908 776.93 429.775 760.944 488.695 711.917C562.468 650.677 615.708 561.277 647.055 445.584C708.681 218.277 611.388 93.1035 566.521 49.7435ZM618.948 437.997C560.308 654.73 427.895 735.477 347.882 752.264V693.477V692.677C347.882 690.77 347.615 688.877 347.615 686.703C346.802 666.93 347.348 647.157 348.975 627.65C349.521 622.77 349.775 617.623 350.601 612.743C360.335 528.757 392.748 461.837 446.268 413.623C455.455 405.21 465.188 397.09 474.641 388.957C518.695 351.29 564.362 312.557 585.175 252.143C598.148 214.477 602.201 174.93 597.055 138.623C631.121 200.663 656.788 298.197 618.948 437.997Z" fill="black"/>
<path fill-rule="evenodd" clip-rule="evenodd" d="M608.948 885.57C608.948 885.57 411.401 969.29 439.508 1143.22C610.041 1100.69 608.948 885.57 608.948 885.57Z" fill="#FF9C99"/>
</g>
<defs>
<clipPath id="clip0_1_3">
<rect width="686" height="1545" fill="white"/>
</clipPath>
</defs>
</svg>
